# xmcd
#
# Track frame offsets:
#	150
#	16934
#	35175
#	53371
#	69386
#	86620
#	102484
#	119519
#	136517
#	151017
#	167801
#	186042
#	204238
#	220253
#	237487
#	253351
#	270386
#	287384
#
# Disc length: 4025 seconds
#
# Revision: 1
# Processed by: cddbd v1.5.2PL0 Copyright (c) Steve Scherf et al.
# Submitted via: audiograbber 1.83.01
#
DISCID=f50fb712
DTITLE=Various Artist - PHMC1202
DYEAR=2012
DGENRE=Country
TTITLE0=George Strait - Love's Gonna Make It Alright
TTITLE1=Dierks Bentley - Home
TTITLE2=Gloriana - Kissed You Good Night
TTITLE3=Wade Bowen - Saturday Night
TTITLE4=Chris Young - Neon
TTITLE5=Toby Keith - Beers Ago
TTITLE6=David Nail and Lee Ann Womack - Songs For Sale
TTITLE7=Shawna Russell - Waitin' On Sunrise
TTITLE8=Barry Michael - Uncountrify Me
TTITLE9=George Strait - Love's Gonna Make It Alright (Vocals)
TTITLE10=Dierks Bentley - Home (Vocals)
TTITLE11=Gloriana - Kissed You Good Night (Vocals)
TTITLE12=Wade Bowen - Saturday Night (Vocals)
TTITLE13=Chris Young - Neon (Vocals)
TTITLE14=Toby Keith - Beers Ago (Vocals)
TTITLE15=David Nail and Lee Ann Womack - Songs For Sale (Vocals)
TTITLE16=Shawna Russell - Waitin' On Sunrise (Vocals)
TTITLE17=Barry Michael - Uncountrify Me (Vocals)
EXTD=
EXTT0=
EXTT1=
EXTT2=
EXTT3=
EXTT4=
EXTT5=
EXTT6=
EXTT7=
EXTT8=
EXTT9=
EXTT10=
EXTT11=
EXTT12=
EXTT13=
EXTT14=
EXTT15=
EXTT16=
EXTT17=
PLAYORDER=
